<svg width="375" height="588" viewBox="0 0 375 588" fill="none" xmlns="http://www.w3.org/2000/svg">
<rect width="26.4618" height="4.7339" transform="matrix(0.757375 0.65298 0.65298 -0.757375 126.185 47.5859)" fill="#6070FF"/>
<ellipse cx="131.304" cy="59.2115" rx="5.5" ry="5" transform="rotate(52.9708 131.304 59.2115)" fill="#CBCDFF"/>
<rect x="190.824" y="549" width="68.0631" height="12.1762" transform="rotate(23.34 190.824 549)" fill="#EBEBFF"/>
<circle cx="246" cy="563.096" r="10" fill="#6070FF"/>
<path d="M333.907 465.5C335.426 463.69 336.498 461.548 337.036 459.247C337.573 456.945 337.562 454.55 337.001 452.254C336.441 449.958 335.348 447.827 333.81 446.032C332.273 444.237 330.335 442.83 328.152 441.924C325.97 441.017 323.604 440.638 321.248 440.816C318.891 440.994 316.61 441.724 314.588 442.948C312.566 444.171 310.861 445.854 309.611 447.859C308.36 449.864 307.6 452.136 307.39 454.49L313.841 455.063C313.96 453.722 314.393 452.428 315.106 451.286C315.818 450.144 316.79 449.185 317.941 448.488C319.093 447.791 320.393 447.375 321.735 447.273C323.078 447.172 324.425 447.388 325.669 447.905C326.912 448.421 328.016 449.223 328.892 450.245C329.768 451.268 330.391 452.482 330.71 453.79C331.029 455.098 331.036 456.462 330.73 457.773C330.423 459.084 329.813 460.305 328.947 461.336L333.907 465.5Z" fill="#EBEBFF"/>
<path d="M317.497 429C317.278 432.194 318.337 435.344 320.441 437.757C322.545 440.171 325.521 441.649 328.715 441.868C331.909 442.087 335.059 441.028 337.472 438.924C339.885 436.82 341.364 433.844 341.583 430.65L317.497 429Z" fill="#6070FF"/>
<rect x="-35" y="37.4874" width="51.9898" height="9.30073" transform="rotate(-46.1415 -35 37.4874)" fill="#EBEBFF"/>
<path d="M-12.8095 24.6425C-14.8144 29.3383 -14.8718 34.6382 -12.969 39.3763C-11.0663 44.1143 -7.35924 47.9025 -2.66346 49.9074C2.03231 51.9123 7.3322 51.9696 12.0703 50.0669C16.8084 48.1641 20.5965 44.4571 22.6014 39.7613L-12.8095 24.6425Z" fill="#6070FF"/>
<circle cx="220.5" cy="13.5006" r="7" fill="white" stroke="#CBCDFF"/>
<circle cx="302.5" cy="216.501" r="5" fill="white" stroke="#CBCDFF"/>
<circle cx="59.5" cy="548.5" r="7" fill="white" stroke="#CBCDFF"/>
<path d="M420.241 74.9707C416.195 67.7882 410.514 61.6596 403.659 57.0809C396.803 52.5023 388.966 49.6024 380.782 48.616C372.597 47.6297 364.295 48.5846 356.548 51.4034C348.802 54.2222 341.827 58.8258 336.191 64.8413C330.554 70.8568 326.413 78.1152 324.103 86.0287C321.793 93.9422 321.379 102.289 322.895 110.392C324.411 118.495 327.813 126.127 332.828 132.671C337.842 139.215 344.326 144.485 351.756 148.057L361.543 127.696C357.31 125.661 353.616 122.658 350.759 118.931C347.903 115.203 345.964 110.855 345.101 106.238C344.237 101.622 344.473 96.8668 345.789 92.3585C347.105 87.8502 349.464 83.7151 352.675 80.2881C355.886 76.861 359.86 74.2384 364.273 72.6325C368.686 71.0266 373.416 70.4826 378.079 71.0446C382.741 71.6065 387.206 73.2586 391.112 75.867C395.017 78.4754 398.254 81.9669 400.559 86.0588L420.241 74.9707Z" fill="#6070FF"/>
<rect x="293" y="61.7906" width="95.5804" height="22.021" transform="rotate(-30 293 61.7906)" fill="#EBEBFF"/>
</svg>
